<?xml version="1.0" standalone="no"?>
<!DOCTYPE svg PUBLIC "-//W3C//DTD SVG 20010904//EN"
 "http://www.w3.org/TR/2001/REC-SVG-20010904/DTD/svg10.dtd">
<svg version="1.0" xmlns="http://www.w3.org/2000/svg"
 width="626.000000pt" height="417.000000pt" viewBox="0 0 626.000000 417.000000"
 preserveAspectRatio="xMidYMid meet">
<metadata>
Created by potrace 1.15, written by Peter Selinger 2001-2017
</metadata>
<g transform="translate(0.000000,417.000000) scale(0.100000,-0.100000)"
fill="#000000" stroke="none">
<path d="M0 2085 l0 -2085 3130 0 3130 0 0 1095 c0 932 -2 1095 -14 1095 -8 0
-18 -16 -23 -37 -7 -30 -14 -38 -33 -39 -20 -1 -21 0 -8 10 9 6 23 29 32 50
12 28 20 37 32 32 13 -5 14 -3 7 6 -6 8 -7 22 -2 33 4 11 8 449 8 973 l1 952
-3130 0 -3130 0 0 -2085z m1486 653 c3 -10 9 -16 14 -13 5 3 12 -4 15 -16 4
-11 9 -18 12 -15 7 7 46 -40 180 -220 145 -193 243 -311 381 -461 57 -62 100
-118 97 -123 -4 -6 -11 -8 -16 -4 -5 3 -6 10 -3 16 5 7 0 9 -13 6 -16 -4 -19
-2 -15 14 5 22 -16 21 -35 -2 -8 -10 -12 -11 -13 -3 0 6 5 15 10 18 18 11 10
27 -11 22 -15 -4 -23 0 -26 13 -3 12 -10 17 -21 12 -14 -5 -15 -3 -5 10 17 20
5 30 -19 17 -11 -6 -22 -8 -26 -5 -3 3 1 6 9 6 11 0 11 2 -1 10 -12 8 -12 10
5 11 15 0 13 3 -9 11 -21 8 -25 13 -15 19 11 7 10 9 -3 9 -10 0 -18 -6 -18
-12 0 -9 -3 -10 -8 -2 -4 6 -14 14 -22 17 -10 3 -7 6 8 6 21 1 22 3 8 16 -8 8
-21 15 -28 15 -11 0 -11 -2 0 -9 11 -6 10 -10 -4 -15 -10 -4 -15 -4 -11 0 4 4
0 16 -10 26 -15 17 -15 18 3 19 14 0 15 2 4 6 -8 4 -21 12 -28 20 -11 11 -11
13 0 14 10 0 10 2 0 6 -6 2 -10 8 -7 13 3 4 -3 7 -13 6 -11 -1 -16 5 -14 17 2
9 -2 17 -8 17 -5 0 -10 5 -10 11 0 6 -7 17 -15 26 -8 8 -13 19 -10 24 4 5 1 9
-4 9 -6 0 -11 7 -11 15 0 8 -4 15 -9 15 -5 0 -12 11 -15 25 -4 14 -11 25 -16
25 -6 0 -10 6 -10 13 0 7 -16 30 -35 50 -19 20 -32 37 -28 37 3 0 -4 8 -15 19
-12 10 -22 22 -22 26 0 4 -10 16 -22 26 -11 11 -18 19 -15 19 4 0 -11 18 -33
40 -23 23 -40 50 -40 63 0 16 -3 18 -9 8 -7 -11 -10 -9 -16 8 -3 12 -11 18
-17 15 -6 -4 -8 1 -3 16 5 15 4 20 -4 16 -6 -4 -11 -2 -11 5 0 7 -7 4 -16 -7
-15 -19 -15 -18 -5 2 12 26 39 27 47 2z m2565 -788 c-13 -11 -29 -20 -37 -20
-8 0 -14 -4 -14 -9 0 -5 -11 -12 -24 -15 -27 -7 -44 -36 -20 -36 8 0 17 -6 20
-14 3 -8 12 -12 20 -9 8 3 12 9 9 13 -3 5 5 6 17 3 20 -4 21 -3 6 7 -10 6 -18
16 -18 21 0 6 7 4 15 -5 9 -8 15 -18 15 -22 -1 -4 4 -11 12 -15 10 -7 10 -9 0
-9 -7 0 -11 -3 -9 -7 3 -5 -5 -8 -18 -8 -13 0 -21 3 -18 8 6 10 -5 9 -27 -3
-15 -8 -17 -6 -13 9 6 23 -45 40 -58 19 -5 -7 -9 -9 -9 -4 0 5 -7 3 -15 -4 -8
-7 -15 -9 -15 -4 -1 5 -8 -3 -16 -19 -8 -15 -12 -31 -9 -36 9 -15 -6 -40 -21
-34 -8 3 -11 10 -7 16 4 6 1 7 -7 2 -9 -6 -10 -1 -5 16 5 18 4 21 -4 9 -6 -8
-8 -23 -5 -33 5 -16 3 -17 -15 -8 -12 7 -21 8 -21 3 0 -9 -53 -8 -69 3 -6 3
-11 2 -11 -3 0 -6 -10 -10 -22 -10 -68 1 -158 -21 -158 -38 0 -3 5 -2 12 2 6
4 8 3 5 -4 -7 -11 -18 -11 -55 2 -15 5 -31 2 -47 -8 -28 -19 -39 -20 -29 -5 4
7 -1 7 -16 -1 -21 -11 -61 -22 -87 -23 -7 0 -9 -5 -6 -10 4 -6 -2 -8 -15 -5
-12 4 -25 2 -28 -4 -3 -5 -15 -8 -25 -5 -10 3 -22 0 -26 -5 -4 -7 -1 -8 7 -3
9 5 11 4 6 -3 -5 -9 -13 -9 -27 -1 -16 8 -19 7 -17 -3 2 -7 -2 -13 -7 -13 -6
0 -9 3 -8 6 1 3 -6 5 -15 4 -34 -3 -62 -17 -73 -36 -5 -11 -15 -17 -20 -13 -6
3 -16 -2 -23 -12 -10 -13 -15 -14 -21 -4 -6 9 -4 11 5 5 8 -5 11 -3 8 6 -3 8
-14 13 -24 11 -15 -2 -16 -1 -4 7 8 5 17 8 21 5 4 -2 10 3 13 12 3 8 11 14 18
13 7 -1 27 4 43 11 17 8 35 15 40 15 6 1 17 5 25 8 44 18 146 48 233 67 53 12
97 26 97 30 0 5 15 8 33 7 61 -1 398 113 532 181 51 25 55 26 26 2z"/>
</g>
</svg>
